<?xml version="1.0" encoding="UTF-8" standalone="no"?>
<!DOCTYPE svg PUBLIC "-//W3C//DTD SVG 1.1//EN" "http://www.w3.org/Graphics/SVG/1.1/DTD/svg11.dtd">
<svg width="100%" height="100%" viewBox="0 0 266 74" version="1.1" xmlns="http://www.w3.org/2000/svg" xmlns:xlink="http://www.w3.org/1999/xlink" xml:space="preserve" xmlns:serif="http://www.serif.com/" style="fill-rule:evenodd;clip-rule:evenodd;stroke-linejoin:round;stroke-miterlimit:2;">
    <g transform="matrix(1,0,0,1,-15.9635,-33.1)">
        <g>
            <g transform="matrix(1,0,0,1,99.502,63.9463)">
                <g>
                    <g>
                        <g transform="matrix(35.4305,0,0,35.4305,0,0)">
                            <path d="M0.619,-0.109L0.619,-0L0.094,-0L0.094,-0.7L0.605,-0.7L0.605,-0.591L0.224,-0.591L0.224,-0.409L0.562,-0.409L0.562,-0.302L0.224,-0.302L0.224,-0.109L0.619,-0.109Z" style="fill:rgb(0,94,86);fill-rule:nonzero;"/>
                        </g>
                        <g transform="matrix(35.4305,0,0,35.4305,23.9864,0)">
                            <path d="M0.833,0.07C0.81,0.097 0.783,0.118 0.751,0.132C0.721,0.146 0.687,0.153 0.65,0.153C0.602,0.153 0.558,0.142 0.518,0.12C0.478,0.099 0.432,0.061 0.381,0.008C0.316,0.003 0.258,-0.016 0.207,-0.049C0.156,-0.081 0.116,-0.123 0.087,-0.175C0.058,-0.228 0.044,-0.286 0.044,-0.35C0.044,-0.418 0.06,-0.48 0.093,-0.535C0.126,-0.59 0.171,-0.632 0.228,-0.664C0.285,-0.695 0.35,-0.71 0.421,-0.71C0.492,-0.71 0.557,-0.695 0.614,-0.664C0.671,-0.632 0.716,-0.59 0.749,-0.535C0.782,-0.48 0.798,-0.419 0.798,-0.35C0.798,-0.295 0.787,-0.244 0.765,-0.197C0.743,-0.15 0.712,-0.11 0.673,-0.077C0.634,-0.043 0.588,-0.02 0.536,-0.005C0.555,0.016 0.574,0.031 0.593,0.04C0.612,0.049 0.632,0.054 0.653,0.054C0.699,0.054 0.739,0.035 0.773,-0.002L0.833,0.07ZM0.175,-0.35C0.175,-0.303 0.186,-0.261 0.207,-0.224C0.228,-0.186 0.258,-0.157 0.295,-0.136C0.332,-0.115 0.374,-0.104 0.421,-0.104C0.468,-0.104 0.51,-0.115 0.547,-0.136C0.584,-0.157 0.614,-0.186 0.635,-0.224C0.656,-0.261 0.667,-0.303 0.667,-0.35C0.667,-0.397 0.656,-0.439 0.635,-0.476C0.614,-0.514 0.584,-0.544 0.547,-0.565C0.51,-0.586 0.468,-0.596 0.421,-0.596C0.374,-0.596 0.332,-0.586 0.295,-0.565C0.258,-0.544 0.228,-0.514 0.207,-0.476C0.186,-0.439 0.175,-0.397 0.175,-0.35Z" style="fill:rgb(0,94,86);fill-rule:nonzero;"/>
                        </g>
                        <g transform="matrix(35.4305,0,0,35.4305,54.1732,0)">
                            <path d="M0.395,0.01C0.298,0.01 0.223,-0.017 0.169,-0.071C0.115,-0.126 0.088,-0.204 0.088,-0.305L0.088,-0.7L0.218,-0.7L0.218,-0.31C0.218,-0.173 0.277,-0.104 0.396,-0.104C0.514,-0.104 0.573,-0.173 0.573,-0.31L0.573,-0.7L0.701,-0.7L0.701,-0.305C0.701,-0.204 0.674,-0.126 0.621,-0.071C0.567,-0.017 0.492,0.01 0.395,0.01Z" style="fill:rgb(0,94,86);fill-rule:nonzero;"/>
                        </g>
                        <g transform="matrix(35.4305,0,0,35.4305,82.4822,0)">
                            <rect x="0.094" y="-0.7" width="0.13" height="0.7" style="fill:rgb(0,94,86);"/>
                        </g>
                        <g transform="matrix(35.4305,0,0,35.4305,94.1388,0)">
                            <path d="M0.716,-0.7L0.716,-0L0.609,-0L0.223,-0.474L0.223,-0L0.094,-0L0.094,-0.7L0.201,-0.7L0.587,-0.226L0.587,-0.7L0.716,-0.7Z" style="fill:rgb(0,94,86);fill-rule:nonzero;"/>
                        </g>
                        <g transform="matrix(35.4305,0,0,35.4305,123.192,0)">
                            <path d="M0.619,-0.109L0.619,-0L0.094,-0L0.094,-0.7L0.605,-0.7L0.605,-0.591L0.224,-0.591L0.224,-0.409L0.562,-0.409L0.562,-0.302L0.224,-0.302L0.224,-0.109L0.619,-0.109Z" style="fill:rgb(0,94,86);fill-rule:nonzero;"/>
                        </g>
                        <g transform="matrix(1,0,0,1,0,36.6)">
                            <g transform="matrix(35.4305,0,0,35.4305,0,0)">
                                <path d="M0.552,-0L0.409,-0.205C0.403,-0.204 0.394,-0.204 0.382,-0.204L0.224,-0.204L0.224,-0L0.094,-0L0.094,-0.7L0.382,-0.7C0.443,-0.7 0.496,-0.69 0.541,-0.67C0.586,-0.65 0.62,-0.621 0.644,-0.584C0.668,-0.547 0.68,-0.502 0.68,-0.451C0.68,-0.398 0.667,-0.353 0.642,-0.315C0.616,-0.277 0.579,-0.249 0.531,-0.23L0.692,-0L0.552,-0ZM0.549,-0.451C0.549,-0.496 0.534,-0.53 0.505,-0.554C0.476,-0.578 0.433,-0.59 0.376,-0.59L0.224,-0.59L0.224,-0.311L0.376,-0.311C0.433,-0.311 0.476,-0.323 0.505,-0.347C0.534,-0.372 0.549,-0.406 0.549,-0.451Z" style="fill:rgb(0,94,86);fill-rule:nonzero;"/>
                            </g>
                            <g transform="matrix(35.4305,0,0,35.4305,26.254,0)">
                                <path d="M0.619,-0.109L0.619,-0L0.094,-0L0.094,-0.7L0.605,-0.7L0.605,-0.591L0.224,-0.591L0.224,-0.409L0.562,-0.409L0.562,-0.302L0.224,-0.302L0.224,-0.109L0.619,-0.109Z" style="fill:rgb(0,94,86);fill-rule:nonzero;"/>
                            </g>
                            <g transform="matrix(35.4305,0,0,35.4305,50.2404,0)">
                                <path d="M0.572,-0.358L0.695,-0.358L0.695,-0.079C0.659,-0.05 0.617,-0.028 0.569,-0.013C0.521,0.002 0.472,0.01 0.421,0.01C0.35,0.01 0.285,-0.006 0.228,-0.037C0.171,-0.068 0.126,-0.11 0.093,-0.165C0.06,-0.22 0.044,-0.281 0.044,-0.35C0.044,-0.419 0.06,-0.48 0.093,-0.535C0.126,-0.59 0.171,-0.632 0.229,-0.664C0.286,-0.695 0.351,-0.71 0.423,-0.71C0.482,-0.71 0.535,-0.7 0.583,-0.681C0.631,-0.662 0.671,-0.633 0.704,-0.596L0.622,-0.516C0.569,-0.569 0.504,-0.596 0.429,-0.596C0.38,-0.596 0.336,-0.586 0.298,-0.565C0.259,-0.544 0.229,-0.515 0.207,-0.478C0.186,-0.441 0.175,-0.398 0.175,-0.35C0.175,-0.303 0.186,-0.261 0.207,-0.224C0.229,-0.187 0.259,-0.157 0.298,-0.136C0.336,-0.115 0.379,-0.104 0.428,-0.104C0.483,-0.104 0.531,-0.116 0.572,-0.14L0.572,-0.358Z" style="fill:rgb(0,94,86);fill-rule:nonzero;"/>
                            </g>
                            <g transform="matrix(35.4305,0,0,35.4305,77.9471,0)">
                                <rect x="0.094" y="-0.7" width="0.13" height="0.7" style="fill:rgb(0,94,86);"/>
                            </g>
                            <g transform="matrix(35.4305,0,0,35.4305,89.6037,0)">
                                <path d="M0.311,0.01C0.257,0.01 0.205,0.002 0.155,-0.013C0.104,-0.028 0.064,-0.049 0.035,-0.074L0.08,-0.175C0.109,-0.152 0.144,-0.134 0.186,-0.119C0.227,-0.105 0.269,-0.098 0.311,-0.098C0.363,-0.098 0.402,-0.106 0.428,-0.123C0.453,-0.14 0.466,-0.162 0.466,-0.189C0.466,-0.209 0.459,-0.226 0.445,-0.238C0.43,-0.252 0.412,-0.262 0.39,-0.269C0.368,-0.276 0.338,-0.285 0.3,-0.294C0.247,-0.307 0.203,-0.319 0.171,-0.332C0.138,-0.345 0.109,-0.365 0.086,-0.392C0.062,-0.419 0.05,-0.455 0.05,-0.501C0.05,-0.54 0.061,-0.575 0.082,-0.607C0.102,-0.638 0.134,-0.663 0.177,-0.682C0.219,-0.701 0.271,-0.71 0.332,-0.71C0.375,-0.71 0.417,-0.705 0.458,-0.694C0.499,-0.683 0.535,-0.668 0.565,-0.648L0.524,-0.547C0.493,-0.565 0.461,-0.579 0.428,-0.588C0.395,-0.597 0.362,-0.602 0.331,-0.602C0.28,-0.602 0.242,-0.593 0.217,-0.576C0.192,-0.559 0.179,-0.536 0.179,-0.507C0.179,-0.487 0.186,-0.471 0.201,-0.458C0.215,-0.445 0.233,-0.435 0.255,-0.428C0.277,-0.421 0.307,-0.412 0.345,-0.403C0.397,-0.391 0.44,-0.379 0.473,-0.366C0.506,-0.353 0.535,-0.333 0.559,-0.306C0.582,-0.279 0.594,-0.243 0.594,-0.198C0.594,-0.159 0.584,-0.124 0.563,-0.093C0.542,-0.062 0.51,-0.037 0.467,-0.018C0.424,0.001 0.372,0.01 0.311,0.01Z" style="fill:rgb(0,94,86);fill-rule:nonzero;"/>
                            </g>
                            <g transform="matrix(35.4305,0,0,35.4305,111.89,0)">
                                <path d="M0.236,-0.59L0.004,-0.59L0.004,-0.7L0.598,-0.7L0.598,-0.59L0.366,-0.59L0.366,-0L0.236,-0L0.236,-0.59Z" style="fill:rgb(0,94,86);fill-rule:nonzero;"/>
                            </g>
                            <g transform="matrix(35.4305,0,0,35.4305,133.573,0)">
                                <path d="M0.619,-0.109L0.619,-0L0.094,-0L0.094,-0.7L0.605,-0.7L0.605,-0.591L0.224,-0.591L0.224,-0.409L0.562,-0.409L0.562,-0.302L0.224,-0.302L0.224,-0.109L0.619,-0.109Z" style="fill:rgb(0,94,86);fill-rule:nonzero;"/>
                            </g>
                            <g transform="matrix(35.4305,0,0,35.4305,157.666,0)">
                                <path d="M0.552,-0L0.409,-0.205C0.403,-0.204 0.394,-0.204 0.382,-0.204L0.224,-0.204L0.224,-0L0.094,-0L0.094,-0.7L0.382,-0.7C0.443,-0.7 0.496,-0.69 0.541,-0.67C0.586,-0.65 0.62,-0.621 0.644,-0.584C0.668,-0.547 0.68,-0.502 0.68,-0.451C0.68,-0.398 0.667,-0.353 0.642,-0.315C0.616,-0.277 0.579,-0.249 0.531,-0.23L0.692,-0L0.552,-0ZM0.549,-0.451C0.549,-0.496 0.534,-0.53 0.505,-0.554C0.476,-0.578 0.433,-0.59 0.376,-0.59L0.224,-0.59L0.224,-0.311L0.376,-0.311C0.433,-0.311 0.476,-0.323 0.505,-0.347C0.534,-0.372 0.549,-0.406 0.549,-0.451Z" style="fill:rgb(0,94,86);fill-rule:nonzero;"/>
                            </g>
                        </g>
                    </g>
                </g>
            </g>
            <g id="ER_Motif_Green__xAE__8_">
                <g>
                    <g>
                        <path d="M75.3,43.2L76.6,43.2L77.7,45L79,45L77.7,43C78.4,42.7 78.9,42.1 78.9,41.2C78.9,40 78,39.2 76.5,39.2L74.1,39.2L74.1,45L75.4,45L75.4,43.2L75.3,43.2ZM75.3,40.2L76.4,40.2C77.2,40.2 77.7,40.6 77.7,41.2C77.7,41.8 77.2,42.2 76.4,42.2L75.3,42.2L75.3,40.2Z" style="fill:rgb(0,94,86);fill-rule:nonzero;"/>
                        <path d="M76.2,47.2C79.1,47.2 81.4,44.9 81.4,42C81.4,39.1 79.2,36.9 76.3,36.9C73.4,36.9 71.1,39.2 71.1,42C71.1,45 73.3,47.2 76.2,47.2M76.3,37.7C78.8,37.7 80.6,39.6 80.6,42C80.6,44.5 78.7,46.4 76.3,46.4C73.8,46.4 72,44.5 72,42.1C71.9,39.6 73.8,37.7 76.3,37.7" style="fill:rgb(0,94,86);fill-rule:nonzero;"/>
                        <path d="M58.3,59.2C58.3,57.3 56.7,55.7 54.8,55.7C52.9,55.7 51.3,57.3 51.3,59.2C51.3,61.1 52.9,62.7 54.8,62.7C56.7,62.7 58.3,61.1 58.3,59.2" style="fill:rgb(0,94,86);fill-rule:nonzero;"/>
                        <path d="M78.9,51.7C78.6,51.2 77.9,51.2 77.5,51.5L74.5,53.8L74.1,54.1C73.9,54.3 73.7,54.5 73.7,54.8C73.7,55 73.8,55.1 73.8,55.3C73.9,55.5 74,55.6 74.1,55.8C78.1,61.7 79.8,68.9 78.7,76.3C78,80.7 76.3,84.8 73.7,88.4C67.2,97.2 56.8,101.5 46,99.8C41.7,99.1 37.5,97.4 34,94.8C25.4,88.5 21,78.3 22.4,67.8C23,63.2 24.8,58.8 27.5,55.1C33,47.6 41.5,43.3 50.5,43.3C53.9,43.3 57.3,43.9 60.4,45.1L60.4,82.8C60.4,83.3 60,83.7 59.4,83.7L50.7,83.7L50.3,83.6C50,83.5 49.8,83.3 49.7,83L49.7,72.2C49.7,71.9 49.5,71.7 49.3,71.6C45.5,70.8 42.7,67.4 42.7,63.4L42.7,62.4C42.8,61.3 43.1,60.5 43.1,59.4C43.1,57.4 38.7,55.6 38.7,55.6C37.3,57.9 36.4,60.5 36.4,63.4C36.4,68.7 39.2,73.4 43.5,75.9L43.5,85.3C43.5,87.8 45.5,89.8 48,89.8L62.1,89.8C64.6,89.8 66.6,87.8 66.6,85.3L66.6,33.1L60.4,38.5C55.1,36.9 49.3,36.6 43.3,37.8C29.8,40.6 19.2,51.4 16.6,65C11.8,90.5 34.9,112.2 60.6,105C71.9,101.9 80.7,93 83.9,81.8C87.1,70.6 84.7,59.8 78.9,51.7" style="fill:rgb(0,94,86);fill-rule:nonzero;"/>
                    </g>
                </g>
            </g>
        </g>
    </g>
</svg>
